<svg xmlns="http://www.w3.org/2000/svg" viewBox="0 0 32 32"><g id="return"><path d="M27.8,4H4.2A2.21,2.21,0,0,0,2,6.2V8.8a2.2,2.2,0,0,0,1,1.84V24.78A4.22,4.22,0,0,0,7.22,29H24.78A4.21,4.21,0,0,0,29,25.22.79.79,0,0,0,29,25c0-.05,0-.1,0-.15s0-.05,0-.07V10.64A2.2,2.2,0,0,0,30,8.8V6.2A2.21,2.21,0,0,0,27.8,4ZM4,6.2A.2.2,0,0,1,4.2,6H27.8a.2.2,0,0,1,.2.2V8.8a.2.2,0,0,1-.2.2H4.2A.2.2,0,0,1,4,8.8ZM24.78,27H7.22A2.23,2.23,0,0,1,5,24.78V11H27v9.54A6,6,0,0,0,23,19H17.41l1.3-1.29a1,1,0,0,0-1.42-1.42l-3,3a1,1,0,0,0-.21.33,1,1,0,0,0,0,.76,1,1,0,0,0,.21.33l3,3a1,1,0,0,0,1.42,0,1,1,0,0,0,0-1.42L17.41,21H23a4,4,0,0,1,4,3.89A2.23,2.23,0,0,1,24.78,27Z"/></g></svg>